<svg width="692" height="515" viewBox="0 0 692 515" fill="none" xmlns="http://www.w3.org/2000/svg">
<g filter="url(#filter0_d_0_3)">
<rect x="20" y="10" width="652" height="475" rx="15" fill="#072E68" fill-opacity="0.85" shape-rendering="crispEdges"/>
</g>
<path fill-rule="evenodd" clip-rule="evenodd" d="M228.166 308.328H49.7444C43.8789 308.328 39.1241 312.682 39.1241 318.053V438.65C39.1241 444.022 43.8789 448.376 49.7444 448.376H228.166C234.031 448.376 238.786 444.022 238.786 438.65V318.053C238.786 312.682 234.031 308.328 228.166 308.328ZM49.7444 306.383C42.7058 306.383 37 311.608 37 318.053V438.65C37 445.096 42.7058 450.321 49.7444 450.321H228.166C235.204 450.321 240.91 445.096 240.91 438.65V318.053C240.91 311.608 235.204 306.383 228.166 306.383H49.7444Z" fill="url(#paint0_linear_0_3)"/>
<path d="M53.4858 329.657C53.4858 327.515 55.1469 325.778 57.1958 325.778H194.878C196.927 325.778 198.588 327.515 198.588 329.657C198.588 331.8 196.927 333.536 194.878 333.536H57.1958C55.1469 333.536 53.4858 331.8 53.4858 329.657Z" fill="url(#paint1_linear_0_3)"/>
<path d="M53.4858 349.052C53.4858 346.91 55.1469 345.173 57.1958 345.173H101.716C103.765 345.173 105.426 346.91 105.426 349.052C105.426 351.194 103.765 352.931 101.716 352.931H57.1958C55.1469 352.931 53.4858 351.194 53.4858 349.052Z" fill="url(#paint2_linear_0_3)"/>
<path d="M112.026 349.052C112.026 346.91 113.687 345.173 115.736 345.173H133.049C135.098 345.173 136.759 346.91 136.759 349.052C136.759 351.194 135.098 352.931 133.049 352.931H115.736C113.687 352.931 112.026 351.194 112.026 349.052Z" fill="url(#paint3_linear_0_3)"/>
<path d="M53.4858 426.632C53.4858 424.49 55.1469 422.753 57.1958 422.753H101.716C103.765 422.753 105.426 424.49 105.426 426.632C105.426 428.774 103.765 430.511 101.716 430.511H57.1958C55.1469 430.511 53.4858 428.774 53.4858 426.632Z" fill="url(#paint4_linear_0_3)"/>
<path d="M112.026 426.632C112.026 424.49 113.687 422.753 115.736 422.753H133.049C135.098 422.753 136.759 424.49 136.759 426.632C136.759 428.774 135.098 430.511 133.049 430.511H115.736C113.687 430.511 112.026 428.774 112.026 426.632Z" fill="url(#paint5_linear_0_3)"/>
<path d="M83.1685 387.843C83.1685 385.701 84.8295 383.964 86.8784 383.964H99.2451C101.294 383.964 102.955 385.701 102.955 387.843C102.955 389.985 101.294 391.722 99.2451 391.722H86.8785C84.8295 391.722 83.1685 389.985 83.1685 387.843Z" fill="url(#paint6_linear_0_3)"/>
<path d="M110.375 387.843C110.375 385.701 112.036 383.964 114.085 383.964H166.849C168.898 383.964 170.559 385.701 170.559 387.843C170.559 389.985 168.898 391.722 166.849 391.722H114.085C112.036 391.722 110.375 389.985 110.375 387.843Z" fill="url(#paint7_linear_0_3)"/>
<path d="M53.4858 387.843C53.4858 385.701 55.1469 383.964 57.1958 383.964H74.5091C76.5581 383.964 78.2191 385.701 78.2191 387.843C78.2191 389.985 76.5581 391.722 74.5091 391.722H57.1958C55.1469 391.722 53.4858 389.985 53.4858 387.843Z" fill="url(#paint8_linear_0_3)"/>
<path d="M53.4858 368.447C53.4858 366.305 55.1469 364.568 57.1958 364.568H117.38C119.429 364.568 121.09 366.305 121.09 368.447C121.09 370.59 119.429 372.326 117.38 372.326H57.1958C55.1469 372.326 53.4858 370.59 53.4858 368.447Z" fill="url(#paint9_linear_0_3)"/>
<path d="M126.861 368.447C126.861 366.305 128.522 364.568 130.571 364.568H158.602C160.651 364.568 162.312 366.305 162.312 368.447C162.312 370.59 160.651 372.326 158.602 372.326H130.571C128.522 372.326 126.861 370.59 126.861 368.447Z" fill="url(#paint10_linear_0_3)"/>
<path d="M53.4858 407.239C53.4858 405.097 55.1469 403.36 57.1958 403.36H117.38C119.429 403.36 121.09 405.097 121.09 407.239C121.09 409.382 119.429 411.118 117.38 411.118H57.1958C55.1469 411.118 53.4858 409.382 53.4858 407.239Z" fill="url(#paint11_linear_0_3)"/>
<path d="M121.877 43.4255C121.877 33.2494 129.767 25 139.499 25H599.538C609.271 25 617.161 33.2494 617.161 43.4255V397.389C617.161 407.565 609.271 415.814 599.538 415.814H139.499C129.767 415.814 121.877 407.565 121.877 397.389V43.4255Z" fill="url(#paint12_linear_0_3)"/>
<path fill-rule="evenodd" clip-rule="evenodd" d="M599.282 26.9395H139.243C130.535 26.9395 123.476 34.3205 123.476 43.4255V397.389C123.476 406.494 130.535 413.875 139.243 413.875H599.282C607.99 413.875 615.049 406.494 615.049 397.389V43.4255C615.049 34.3205 607.99 26.9395 599.282 26.9395ZM139.243 25C129.51 25 121.621 33.2494 121.621 43.4255V397.389C121.621 407.565 129.51 415.814 139.243 415.814H599.282C609.014 415.814 616.904 407.565 616.904 397.389V43.4255C616.904 33.2494 609.014 25 599.282 25H139.243Z" fill="url(#paint13_linear_0_3)"/>
<path d="M132.749 61.3655C132.749 50.386 141.262 41.4854 151.763 41.4854H579.339C589.84 41.4854 598.353 50.386 598.353 61.3655C598.353 72.345 589.84 81.2456 579.339 81.2456H151.763C141.262 81.2456 132.749 72.345 132.749 61.3655Z" fill="url(#paint14_linear_0_3)"/>
<path fill-rule="evenodd" clip-rule="evenodd" d="M585.267 103.785H406.846C400.98 103.785 396.226 108.139 396.226 113.511V234.107C396.226 239.479 400.98 243.833 406.846 243.833H585.267C591.133 243.833 595.887 239.479 595.887 234.107V113.511C595.887 108.139 591.133 103.785 585.267 103.785ZM406.846 101.84C399.807 101.84 394.102 107.065 394.102 113.511V234.107C394.102 240.553 399.807 245.778 406.846 245.778H585.267C592.306 245.778 598.012 240.553 598.012 234.107V113.511C598.012 107.065 592.306 101.84 585.267 101.84H406.846Z" fill="url(#paint15_linear_0_3)"/>
<path d="M410.59 125.114C410.59 122.972 412.251 121.235 414.3 121.235H551.982C554.031 121.235 555.692 122.972 555.692 125.114C555.692 127.257 554.031 128.993 551.982 128.993H414.3C412.251 128.993 410.59 127.257 410.59 125.114Z" fill="url(#paint16_linear_0_3)"/>
<path d="M410.59 144.509C410.59 142.367 412.251 140.63 414.3 140.63H458.82C460.869 140.63 462.53 142.367 462.53 144.509C462.53 146.651 460.869 148.388 458.82 148.388H414.3C412.251 148.388 410.59 146.651 410.59 144.509Z" fill="url(#paint17_linear_0_3)"/>
<path d="M469.12 144.509C469.12 142.367 470.781 140.63 472.83 140.63H490.143C492.192 140.63 493.853 142.367 493.853 144.509C493.853 146.651 492.192 148.388 490.143 148.388H472.83C470.781 148.388 469.12 146.651 469.12 144.509Z" fill="url(#paint18_linear_0_3)"/>
<path d="M410.59 222.088C410.59 219.946 412.251 218.209 414.3 218.209H458.82C460.869 218.209 462.53 219.946 462.53 222.088C462.53 224.23 460.869 225.967 458.82 225.967H414.3C412.251 225.967 410.59 224.23 410.59 222.088Z" fill="url(#paint19_linear_0_3)"/>
<path d="M469.12 222.088C469.12 219.946 470.781 218.209 472.83 218.209H490.143C492.192 218.209 493.853 219.946 493.853 222.088C493.853 224.23 492.192 225.967 490.143 225.967H472.83C470.781 225.967 469.12 224.23 469.12 222.088Z" fill="url(#paint20_linear_0_3)"/>
<path d="M440.27 183.299C440.27 181.157 441.931 179.42 443.98 179.42H456.346C458.395 179.42 460.056 181.157 460.056 183.299C460.056 185.441 458.395 187.178 456.346 187.178H443.98C441.931 187.178 440.27 185.441 440.27 183.299Z" fill="url(#paint21_linear_0_3)"/>
<path d="M467.479 183.299C467.479 181.157 469.14 179.42 471.189 179.42H523.953C526.002 179.42 527.663 181.157 527.663 183.299C527.663 185.441 526.002 187.178 523.953 187.178H471.189C469.14 187.178 467.479 185.441 467.479 183.299Z" fill="url(#paint22_linear_0_3)"/>
<path d="M410.59 183.299C410.59 181.157 412.251 179.42 414.3 179.42H431.613C433.662 179.42 435.323 181.157 435.323 183.299C435.323 185.441 433.662 187.178 431.613 187.178H414.3C412.251 187.178 410.59 185.441 410.59 183.299Z" fill="url(#paint23_linear_0_3)"/>
<path d="M410.59 163.904C410.59 161.762 412.251 160.025 414.3 160.025H474.484C476.533 160.025 478.194 161.762 478.194 163.904C478.194 166.047 476.533 167.783 474.484 167.783H414.3C412.251 167.783 410.59 166.047 410.59 163.904Z" fill="url(#paint24_linear_0_3)"/>
<path d="M483.965 163.904C483.965 161.762 485.626 160.025 487.675 160.025H515.706C517.755 160.025 519.416 161.762 519.416 163.904C519.416 166.047 517.755 167.783 515.706 167.783H487.675C485.626 167.783 483.965 166.047 483.965 163.904Z" fill="url(#paint25_linear_0_3)"/>
<path d="M410.59 202.696C410.59 200.554 412.251 198.817 414.3 198.817H474.484C476.533 198.817 478.194 200.554 478.194 202.696C478.194 204.839 476.533 206.575 474.484 206.575H414.3C412.251 206.575 410.59 204.839 410.59 202.696Z" fill="url(#paint26_linear_0_3)"/>
<path d="M527.363 61.5852C527.363 65.2577 524.515 68.2349 521.002 68.2349C517.488 68.2349 514.64 65.2577 514.64 61.5852C514.64 57.9127 517.488 54.9355 521.002 54.9355C524.515 54.9355 527.363 57.9127 527.363 61.5852Z" fill="#FED280"/>
<path d="M549.633 61.5852C549.633 65.2577 546.785 68.2349 543.271 68.2349C539.758 68.2349 536.91 65.2577 536.91 61.5852C536.91 57.9127 539.758 54.9355 543.271 54.9355C546.785 54.9355 549.633 57.9127 549.633 61.5852Z" fill="#8CFEE3" fill-opacity="0.9"/>
<path d="M571.897 61.5852C571.897 65.2577 569.048 68.2349 565.535 68.2349C562.022 68.2349 559.173 65.2577 559.173 61.5852C559.173 57.9127 562.022 54.9355 565.535 54.9355C569.048 54.9355 571.897 57.9127 571.897 61.5852Z" fill="#FF8DA9" fill-opacity="0.9"/>
<rect x="233.661" y="113.767" width="129.384" height="58.4411" rx="6" fill="url(#paint27_linear_0_3)"/>
<rect x="233.222" y="178.449" width="60.0344" height="58.4411" rx="6" fill="url(#paint28_linear_0_3)"/>
<rect x="161.097" y="203.64" width="64.7002" height="33.5877" rx="6" fill="url(#paint29_linear_0_3)"/>
<rect x="298.434" y="178.449" width="60.0344" height="58.4411" rx="6" fill="url(#paint30_linear_0_3)"/>
<path d="M144.127 114.771C144.127 107.592 149.947 101.771 157.127 101.771H366.089C373.269 101.771 379.089 107.592 379.089 114.771V232.71C379.089 239.889 373.269 245.71 366.089 245.71H157.127C149.947 245.71 144.127 239.889 144.127 232.71V114.771Z" fill="url(#paint31_linear_0_3)"/>
<rect x="144.127" y="258.914" width="454.398" height="127.705" rx="13" fill="url(#paint32_linear_0_3)"/>
<path d="M531.267 364.19C531.267 349.11 542.08 336.885 555.417 336.885H624.85C638.188 336.885 649 349.11 649 364.19V442.694C649 457.774 638.188 470 624.85 470H555.417C542.08 470 531.267 457.774 531.267 442.694V364.19Z" fill="#FCD980"/>
<path d="M561.459 399.998C566.343 398.969 568.785 396.127 568.785 391.471C568.785 389.414 568.546 385.895 568.067 380.914C567.588 375.609 567.349 371.765 567.349 369.383C567.349 365.485 568.307 362.507 570.222 360.45C572.185 358.393 574.795 357.364 578.051 357.364H582.216V363.78H579.272C577.404 363.78 576.016 364.267 575.106 365.241C574.196 366.162 573.741 367.705 573.741 369.87C573.741 371.44 573.837 373.389 574.029 375.717C574.22 377.991 574.34 379.534 574.388 380.346C574.866 385.543 575.106 389.333 575.106 391.715C575.106 394.584 574.459 396.993 573.167 398.942C571.922 400.837 569.982 402.109 567.349 402.759V402.921C569.982 403.571 571.922 404.87 573.167 406.819C574.459 408.768 575.106 411.177 575.106 414.046C575.106 416.428 574.866 420.218 574.388 425.415C574.34 426.227 574.22 427.797 574.029 430.125C573.837 432.399 573.741 434.321 573.741 435.891C573.741 438.057 574.196 439.599 575.106 440.52C576.016 441.494 577.404 441.981 579.272 441.981H582.216V448.397H578.051C574.795 448.397 572.185 447.368 570.222 445.311C568.307 443.254 567.349 440.276 567.349 436.378C567.349 433.996 567.588 430.152 568.067 424.847C568.546 419.866 568.785 416.347 568.785 414.29C568.785 409.634 566.343 406.792 561.459 405.763V399.998Z" fill="#1C1E53"/>
<path d="M619.689 405.763C614.805 406.792 612.363 409.634 612.363 414.29C612.363 416.347 612.602 419.866 613.081 424.847C613.56 430.152 613.799 433.996 613.799 436.378C613.799 440.276 612.818 443.254 610.855 445.311C608.939 447.368 606.354 448.397 603.098 448.397H598.932V441.982H601.877C603.744 441.982 605.133 441.494 606.043 440.52C606.952 439.599 607.407 438.057 607.407 435.891C607.407 434.321 607.311 432.399 607.12 430.125C606.928 427.797 606.809 426.227 606.761 425.415C606.282 420.218 606.043 416.429 606.043 414.046C606.043 411.177 606.665 408.768 607.91 406.819C609.203 404.87 611.166 403.571 613.799 402.921V402.759C611.166 402.109 609.203 400.837 607.91 398.942C606.665 396.993 606.043 394.584 606.043 391.715C606.043 389.333 606.282 385.543 606.761 380.346C606.809 379.534 606.928 377.991 607.12 375.717C607.311 373.389 607.407 371.44 607.407 369.87C607.407 367.705 606.952 366.162 606.043 365.241C605.133 364.267 603.744 363.78 601.877 363.78H598.932V357.364H603.098C606.354 357.364 608.939 358.393 610.855 360.45C612.818 362.507 613.799 365.485 613.799 369.383C613.799 371.765 613.56 375.609 613.081 380.914C612.602 385.895 612.363 389.414 612.363 391.471C612.363 396.127 614.805 398.969 619.689 399.998V405.763Z" fill="#1C1E53"/>
<path d="M161.097 119.018C161.097 115.456 163.65 112.568 166.8 112.568H220.023C223.173 112.568 225.726 115.456 225.726 119.018V187.81C225.726 191.372 223.173 194.26 220.023 194.26H166.8C163.65 194.26 161.097 191.372 161.097 187.81V119.018Z" fill="white" fill-opacity="0.17"/>
<defs>
<filter id="filter0_d_0_3" x="0" y="0" width="692" height="515" filterUnits="userSpaceOnUse" color-interpolation-filters="sRGB">
<feFlood flood-opacity="0" result="BackgroundImageFix"/>
<feColorMatrix in="SourceAlpha" type="matrix" values="0 0 0 0 0 0 0 0 0 0 0 0 0 0 0 0 0 0 127 0" result="hardAlpha"/>
<feOffset dy="10"/>
<feGaussianBlur stdDeviation="10"/>
<feComposite in2="hardAlpha" operator="out"/>
<feColorMatrix type="matrix" values="0 0 0 0 0 0 0 0 0 0 0 0 0 0 0 0 0 0 0.25 0"/>
<feBlend mode="normal" in2="BackgroundImageFix" result="effect1_dropShadow_0_3"/>
<feBlend mode="normal" in="SourceGraphic" in2="effect1_dropShadow_0_3" result="shape"/>
</filter>
<linearGradient id="paint0_linear_0_3" x1="138.955" y1="306.383" x2="230.769" y2="671.243" gradientUnits="userSpaceOnUse">
<stop stop-color="white" stop-opacity="0.17"/>
<stop offset="1" stop-opacity="0"/>
</linearGradient>
<linearGradient id="paint1_linear_0_3" x1="126.037" y1="325.778" x2="135.974" y2="372.576" gradientUnits="userSpaceOnUse">
<stop stop-color="white" stop-opacity="0.56"/>
<stop offset="1" stop-color="#C4C4C4" stop-opacity="0"/>
</linearGradient>
<linearGradient id="paint2_linear_0_3" x1="79.4558" y1="345.173" x2="100.916" y2="381.35" gradientUnits="userSpaceOnUse">
<stop stop-color="#F9C746" stop-opacity="0.52"/>
<stop offset="1" stop-color="#C4C4C4" stop-opacity="0"/>
</linearGradient>
<linearGradient id="paint3_linear_0_3" x1="124.393" y1="345.173" x2="148.267" y2="364.338" gradientUnits="userSpaceOnUse">
<stop stop-color="#84EBE5" stop-opacity="0.62"/>
<stop offset="1" stop-color="#C4C4C4" stop-opacity="0"/>
</linearGradient>
<linearGradient id="paint4_linear_0_3" x1="79.4558" y1="422.753" x2="100.916" y2="458.93" gradientUnits="userSpaceOnUse">
<stop stop-color="white" stop-opacity="0.56"/>
<stop offset="1" stop-color="#C4C4C4" stop-opacity="0"/>
</linearGradient>
<linearGradient id="paint5_linear_0_3" x1="124.393" y1="422.753" x2="148.267" y2="441.918" gradientUnits="userSpaceOnUse">
<stop stop-color="#F47D9E"/>
<stop offset="1" stop-color="#C4C4C4" stop-opacity="0"/>
</linearGradient>
<linearGradient id="paint6_linear_0_3" x1="93.0618" y1="383.964" x2="115.299" y2="398.244" gradientUnits="userSpaceOnUse">
<stop stop-color="#F2C87D"/>
<stop offset="1" stop-color="#C4C4C4" stop-opacity="0"/>
</linearGradient>
<linearGradient id="paint7_linear_0_3" x1="140.467" y1="383.964" x2="160.306" y2="422.715" gradientUnits="userSpaceOnUse">
<stop stop-color="white" stop-opacity="0.62"/>
<stop offset="1" stop-color="#C4C4C4" stop-opacity="0"/>
</linearGradient>
<linearGradient id="paint8_linear_0_3" x1="60.0814" y1="382.024" x2="98.1086" y2="387.16" gradientUnits="userSpaceOnUse">
<stop stop-color="#F37D9D"/>
<stop offset="1" stop-color="#C4C4C4" stop-opacity="0"/>
</linearGradient>
<linearGradient id="paint9_linear_0_3" x1="87.288" y1="364.568" x2="105.744" y2="405.064" gradientUnits="userSpaceOnUse">
<stop stop-color="white" stop-opacity="0.58"/>
<stop offset="1" stop-color="#C4C4C4" stop-opacity="0"/>
</linearGradient>
<linearGradient id="paint10_linear_0_3" x1="144.587" y1="364.568" x2="168.802" y2="392.43" gradientUnits="userSpaceOnUse">
<stop stop-color="white" stop-opacity="0.45"/>
<stop offset="1" stop-color="#C4C4C4" stop-opacity="0"/>
</linearGradient>
<linearGradient id="paint11_linear_0_3" x1="87.288" y1="403.36" x2="105.744" y2="443.856" gradientUnits="userSpaceOnUse">
<stop stop-color="#70D1E7"/>
<stop offset="1" stop-color="#C4C4C4" stop-opacity="0"/>
</linearGradient>
<linearGradient id="paint12_linear_0_3" x1="369.519" y1="25" x2="508.43" y2="590.23" gradientUnits="userSpaceOnUse">
<stop stop-color="white" stop-opacity="0.16"/>
<stop offset="1" stop-color="#C4C4C4" stop-opacity="0"/>
</linearGradient>
<linearGradient id="paint13_linear_0_3" x1="369.262" y1="25" x2="730.583" y2="274.304" gradientUnits="userSpaceOnUse">
<stop stop-color="white" stop-opacity="0.17"/>
<stop offset="1" stop-opacity="0"/>
</linearGradient>
<linearGradient id="paint14_linear_0_3" x1="365.551" y1="41.4853" x2="441.79" y2="266.28" gradientUnits="userSpaceOnUse">
<stop stop-color="white" stop-opacity="0.15"/>
<stop offset="1" stop-color="#C4C4C4" stop-opacity="0"/>
</linearGradient>
<linearGradient id="paint15_linear_0_3" x1="496.057" y1="101.84" x2="587.871" y2="466.7" gradientUnits="userSpaceOnUse">
<stop stop-color="white" stop-opacity="0.17"/>
<stop offset="1" stop-opacity="0"/>
</linearGradient>
<linearGradient id="paint16_linear_0_3" x1="483.141" y1="121.235" x2="493.078" y2="168.033" gradientUnits="userSpaceOnUse">
<stop stop-color="white" stop-opacity="0.56"/>
<stop offset="1" stop-color="#C4C4C4" stop-opacity="0"/>
</linearGradient>
<linearGradient id="paint17_linear_0_3" x1="436.56" y1="140.63" x2="458.02" y2="176.807" gradientUnits="userSpaceOnUse">
<stop stop-color="#F9C746" stop-opacity="0.52"/>
<stop offset="1" stop-color="#C4C4C4" stop-opacity="0"/>
</linearGradient>
<linearGradient id="paint18_linear_0_3" x1="481.486" y1="140.63" x2="505.361" y2="159.795" gradientUnits="userSpaceOnUse">
<stop stop-color="#84EBE5" stop-opacity="0.62"/>
<stop offset="1" stop-color="#C4C4C4" stop-opacity="0"/>
</linearGradient>
<linearGradient id="paint19_linear_0_3" x1="436.56" y1="218.209" x2="458.02" y2="254.386" gradientUnits="userSpaceOnUse">
<stop stop-color="white" stop-opacity="0.56"/>
<stop offset="1" stop-color="#C4C4C4" stop-opacity="0"/>
</linearGradient>
<linearGradient id="paint20_linear_0_3" x1="481.486" y1="218.209" x2="505.361" y2="237.374" gradientUnits="userSpaceOnUse">
<stop stop-color="#F47D9E"/>
<stop offset="1" stop-color="#C4C4C4" stop-opacity="0"/>
</linearGradient>
<linearGradient id="paint21_linear_0_3" x1="450.163" y1="179.42" x2="472.4" y2="193.7" gradientUnits="userSpaceOnUse">
<stop stop-color="#F2C87D"/>
<stop offset="1" stop-color="#C4C4C4" stop-opacity="0"/>
</linearGradient>
<linearGradient id="paint22_linear_0_3" x1="497.571" y1="179.42" x2="517.409" y2="218.171" gradientUnits="userSpaceOnUse">
<stop stop-color="white" stop-opacity="0.62"/>
<stop offset="1" stop-color="#C4C4C4" stop-opacity="0"/>
</linearGradient>
<linearGradient id="paint23_linear_0_3" x1="417.185" y1="177.48" x2="455.213" y2="182.616" gradientUnits="userSpaceOnUse">
<stop stop-color="#F37D9D"/>
<stop offset="1" stop-color="#C4C4C4" stop-opacity="0"/>
</linearGradient>
<linearGradient id="paint24_linear_0_3" x1="444.392" y1="160.025" x2="462.848" y2="200.521" gradientUnits="userSpaceOnUse">
<stop stop-color="white" stop-opacity="0.58"/>
<stop offset="1" stop-color="#C4C4C4" stop-opacity="0"/>
</linearGradient>
<linearGradient id="paint25_linear_0_3" x1="501.691" y1="160.025" x2="525.906" y2="187.887" gradientUnits="userSpaceOnUse">
<stop stop-color="white" stop-opacity="0.45"/>
<stop offset="1" stop-color="#C4C4C4" stop-opacity="0"/>
</linearGradient>
<linearGradient id="paint26_linear_0_3" x1="444.392" y1="198.817" x2="462.848" y2="239.313" gradientUnits="userSpaceOnUse">
<stop stop-color="#70D1E7"/>
<stop offset="1" stop-color="#C4C4C4" stop-opacity="0"/>
</linearGradient>
<linearGradient id="paint27_linear_0_3" x1="268.473" y1="89.9156" x2="291.82" y2="201.791" gradientUnits="userSpaceOnUse">
<stop stop-color="white" stop-opacity="0.31"/>
<stop offset="1" stop-color="white" stop-opacity="0"/>
</linearGradient>
<linearGradient id="paint28_linear_0_3" x1="249.374" y1="154.598" x2="293.048" y2="251.704" gradientUnits="userSpaceOnUse">
<stop stop-color="white" stop-opacity="0.31"/>
<stop offset="1" stop-color="white" stop-opacity="0"/>
</linearGradient>
<linearGradient id="paint29_linear_0_3" x1="178.505" y1="189.932" x2="193.723" y2="253.38" gradientUnits="userSpaceOnUse">
<stop stop-color="white" stop-opacity="0.31"/>
<stop offset="1" stop-color="white" stop-opacity="0"/>
</linearGradient>
<linearGradient id="paint30_linear_0_3" x1="314.587" y1="154.598" x2="358.261" y2="251.704" gradientUnits="userSpaceOnUse">
<stop stop-color="white" stop-opacity="0.31"/>
<stop offset="1" stop-color="white" stop-opacity="0"/>
</linearGradient>
<linearGradient id="paint31_linear_0_3" x1="207.345" y1="43.0274" x2="282.694" y2="309.247" gradientUnits="userSpaceOnUse">
<stop stop-color="white" stop-opacity="0.31"/>
<stop offset="1" stop-color="white" stop-opacity="0"/>
</linearGradient>
<linearGradient id="paint32_linear_0_3" x1="207.267" y1="-41.9494" x2="72.6783" y2="377.106" gradientUnits="userSpaceOnUse">
<stop stop-color="white" stop-opacity="0.31"/>
<stop offset="1" stop-color="white" stop-opacity="0"/>
</linearGradient>
</defs>
</svg>
